<?xml version="1.0" encoding="utf-8"?>
<!-- Generator: Adobe Illustrator 26.2.1, SVG Export Plug-In . SVG Version: 6.00 Build 0)  -->
<svg version="1.1" id="Layer_1" xmlns="http://www.w3.org/2000/svg" xmlns:xlink="http://www.w3.org/1999/xlink" x="0px" y="0px"
	 viewBox="0 0 40 40" style="enable-background:new 0 0 40 40;" xml:space="preserve">
<style type="text/css">
	.st0{fill:#3575A8;}
</style>
<g>
	<g>
		<path class="st0" d="M33.55,10.4c-0.61-0.02-1.12-0.53-1.12-1.14c0-0.34,0.11-0.64,0.33-0.86c0.2-0.21,0.48-0.32,0.79-0.32
			c0.32,0,0.61,0.12,0.83,0.33c0.21,0.21,0.33,0.5,0.33,0.82c0,0.63-0.51,1.16-1.12,1.16C33.58,10.4,33.55,10.4,33.55,10.4z"/>
		<path class="st0" d="M33.55,10.26c-0.54-0.01-0.98-0.46-0.99-1c0-0.3,0.1-0.57,0.29-0.76c0.18-0.18,0.43-0.28,0.7-0.28
			c0.28,0,0.54,0.1,0.73,0.29c0.19,0.19,0.29,0.44,0.29,0.73c0,0.56-0.45,1.02-0.98,1.02L33.55,10.26z"/>
		<path class="st0" d="M27.25,8.12c-0.21-0.01-0.42-0.11-0.57-0.28c-0.15-0.17-0.23-0.39-0.22-0.61c0.03-0.43,0.37-0.76,0.8-0.76
			c0.25,0.01,0.47,0.13,0.63,0.31c0.15,0.17,0.22,0.36,0.2,0.53c-0.04,0.39-0.47,0.79-0.83,0.79L27.25,8.12z"/>
		<path class="st0" d="M27.26,7.99c-0.18-0.01-0.34-0.09-0.47-0.23c-0.13-0.14-0.2-0.33-0.18-0.51c0.02-0.36,0.31-0.63,0.67-0.63
			c0.2,0.01,0.39,0.1,0.53,0.27c0.12,0.14,0.18,0.3,0.17,0.43c-0.03,0.31-0.4,0.67-0.69,0.67L27.26,7.99z"/>
		<path class="st0" d="M28.54,12.76c-0.18,0-0.4-0.11-0.57-0.29c-0.17-0.17-0.27-0.39-0.26-0.56c0.01-0.41,0.42-0.79,0.83-0.79
			c0.46,0,0.79,0.33,0.81,0.78c0.01,0.22-0.08,0.44-0.25,0.61C28.94,12.67,28.74,12.76,28.54,12.76L28.54,12.76z"/>
		<path class="st0" d="M28.54,12.62c-0.14,0-0.33-0.1-0.48-0.25c-0.14-0.15-0.23-0.33-0.23-0.46c0.01-0.33,0.36-0.66,0.7-0.66
			c0.38,0,0.66,0.27,0.67,0.65c0.01,0.18-0.07,0.37-0.21,0.51C28.87,12.55,28.7,12.62,28.54,12.62L28.54,12.62z"/>
		<path class="st0" d="M33.9,15.17c-0.38-0.01-0.73-0.39-0.72-0.78c0.01-0.42,0.32-0.73,0.74-0.73c0.39,0,0.76,0.35,0.77,0.73
			c0,0.16-0.09,0.36-0.25,0.52c-0.16,0.16-0.36,0.26-0.52,0.26L33.9,15.17z"/>
		<path class="st0" d="M33.9,15.03c-0.31-0.01-0.59-0.32-0.59-0.64c0-0.35,0.25-0.59,0.6-0.59c0.31,0,0.63,0.29,0.64,0.59
			c0,0.12-0.08,0.29-0.21,0.42c-0.13,0.14-0.3,0.22-0.43,0.22L33.9,15.03z"/>
		<path class="st0" d="M35.94,19.08c-0.1-0.11-0.3-0.16-0.62-0.16c-0.25,0-0.57,0.03-0.97,0.11c-0.25,0.04-0.5,0.07-0.74,0.07
			c-1.44,0-2.7-0.77-3.38-2.05c-0.33-0.63-0.56-0.92-0.71-0.92c-0.25,0-0.78,0.32-0.96,0.43c-0.63,0.38-1.27,0.58-1.9,0.58
			c-0.56,0-1.11-0.15-1.64-0.45c-1.75-0.99-2.29-2.92-1.34-4.8c0.48-0.95,0.47-1.01-0.41-1.54c-1.74-1.06-2.19-2.85-1.18-4.68
			c0.18-0.33,0.24-0.61,0.16-0.8c-0.08-0.19-0.33-0.36-0.7-0.47c-0.58-0.17-1.16-0.26-1.72-0.26c-1.09,0-2.18,0.33-3.23,0.98
			c-0.43,0.26-0.85,0.38-1.41,0.38c-2.72,0.01-4.63,1.15-5.83,3.47c-0.21,0.41-0.49,0.69-0.9,0.9c-2.01,1.03-3.11,2.64-3.38,4.94
			c-0.02,0.16-0.01,0.35-0.01,0.54c0.02,0.5,0.04,1.06-0.34,1.66c-1.41,2.2-1.41,4.49,0,6.81c0.17,0.28,0.4,0.65,0.34,1.18
			c-0.26,2.34,1.3,5.07,3.41,5.95c0.51,0.21,0.76,0.59,0.9,0.86c1.21,2.32,3.05,3.44,5.62,3.44c0.09,0,0.33,0,0.33,0
			c0.43,0,0.79,0.1,1.15,0.33c1.15,0.71,2.31,1.07,3.44,1.07c1.14,0,2.29-0.36,3.44-1.07c0.35-0.22,0.72-0.32,1.14-0.32
			c0.06,0,0.12,0,0.18,0.01c0.11,0.01,0.23,0.01,0.35,0.01c2.26,0,4.43-1.35,5.39-3.36c0.21-0.44,0.48-0.73,0.88-0.93
			c2.39-1.24,3.52-3.16,3.45-5.87c-0.01-0.36,0.02-0.8,0.33-1.25c0.62-0.92,0.95-1.96,1.02-3.28C36.18,19.56,36.05,19.2,35.94,19.08
			z M11.8,23.66h-0.01c-0.36,0-0.73-0.16-1-0.44c-0.27-0.27-0.42-0.63-0.41-0.98c0.01-0.76,0.66-1.4,1.42-1.4
			c0.37,0,0.74,0.16,1.01,0.43c0.27,0.27,0.41,0.62,0.41,0.98C13.21,23,12.54,23.66,11.8,23.66z M15.26,15.58h-0.01
			c-0.77-0.01-1.44-0.66-1.45-1.42c-0.01-0.37,0.14-0.72,0.4-0.99c0.28-0.28,0.65-0.44,1.05-0.44c0.42,0,0.79,0.15,1.04,0.41
			c0.25,0.26,0.39,0.63,0.38,1.04C16.67,14.95,16.03,15.58,15.26,15.58z M19,29.9h-0.02c-0.7-0.01-1.28-0.58-1.29-1.28
			c-0.01-0.32,0.13-0.65,0.38-0.91c0.25-0.26,0.59-0.42,0.92-0.42c0.35,0,0.66,0.13,0.9,0.37c0.25,0.25,0.39,0.59,0.39,0.95
			C20.28,29.35,19.73,29.9,19,29.9z M19.77,22.32l-0.03,0c-0.33-0.01-0.65-0.16-0.9-0.42c-0.25-0.26-0.38-0.6-0.37-0.94
			c0.03-0.68,0.62-1.25,1.3-1.25c0.35,0,0.68,0.15,0.93,0.41c0.25,0.25,0.39,0.59,0.38,0.92C21.08,21.71,20.45,22.32,19.77,22.32z
			 M27.91,25.86c-0.25,0.25-0.6,0.39-0.98,0.39h0c-0.81,0-1.4-0.58-1.4-1.38c0-0.8,0.58-1.39,1.38-1.41c0.8,0,1.39,0.58,1.4,1.38
			C28.31,25.24,28.17,25.6,27.91,25.86z"/>
	</g>
</g>
</svg>
