<svg xmlns="http://www.w3.org/2000/svg" viewBox="0 0 48 32" width="48" height="32" role="img" aria-label="Visa">
  <rect width="48" height="32" rx="3" fill="#fff"/>
  <path fill="#1A1F71" d="M19.8 21.2h-2.6l1.6-10.4h2.6l-1.6 10.4zm9.9-10.1c-.5-.2-1.3-.4-2.3-.4-2.5 0-4.3 1.3-4.3 3.2 0 1.4 1.3 2.2 2.3 2.6 1 .5 1.4.8 1.4 1.2 0 .7-.8 1-1.6 1-.9 0-1.5-.1-2.3-.5l-.3-.1-.4 2.2c.6.3 1.8.5 3 .5 2.7 0 4.4-1.3 4.4-3.3 0-1.1-.7-1.9-2.2-2.6-.9-.4-1.5-.7-1.5-1.2 0-.4.5-.8 1.5-.8.8 0 1.4.2 1.9.4l.2.1.4-2.1zm7.2 10.1h2.3l-2-10.4h-2.1c-.5 0-.9.3-1.1.7l-3.7 9.7h2.6l.5-1.4h3.2l.3 1.4zm-2.8-3.3l1.3-3.6.8 3.6h-2.1zm-14.2-7.1l-2.5 10.4H15l.5-2.4c.2-.1.3-.1.4-.1.5-.1.9-.1 1.3-.1.7 0 1.3.1 1.7.3.4.2.7.5.9 1l1.7-8.1h-2.6z"/>
  <path fill="#F7B600" d="M15.5 10.8H13l-2.5 10.4h2.6l2.4-10.4z"/>
</svg>
