<svg xmlns="http://www.w3.org/2000/svg" viewBox="0 0 48 32" width="48" height="32" role="img" aria-label="Apple Pay">
  <rect width="48" height="32" rx="3" fill="#fff"/>
  <path fill="#000" d="M17.4 10.2c.5-.6.8-1.4.7-2.2-.7 0-1.6.5-2.1 1.1-.5.5-.9 1.4-.8 2.2.8.1 1.6-.4 2.2-1.1zm.7 1.1c-1.2-.1-2.2.7-2.8.7-.6 0-1.4-.6-2.4-.6-1.2 0-2.4.7-3 1.9-1.3 2.3-.3 5.6.9 7.5.6.9 1.3 1.9 2.2 1.9.9 0 1.2-.6 2.3-.6s1.4.6 2.3.6c1 0 1.6-.9 2.2-1.8.7-1 1-2 1-2.1-.1 0-1.9-.7-1.9-2.9 0-1.8 1.5-2.7 1.5-2.7-.9-1.2-2.2-1.4-2.5-1.5z"/>
  <text x="30.5" y="19.2" text-anchor="middle" fill="#000" font-family="Arial, Helvetica, sans-serif" font-size="8.5" font-weight="500">Pay</text>
</svg>
