<svg xmlns="http://www.w3.org/2000/svg" viewBox="0 0 48 32" width="48" height="32" role="img" aria-label="Google Pay">
  <rect width="48" height="32" rx="3" fill="#fff"/>
  <g transform="translate(6,10)">
    <path fill="#4285F4" d="M17.5 6.1v-2H11v2h3.9c-.2 1-.7 1.7-1.4 2.2l2.1 1.6c1.2-1.1 1.9-2.8 1.9-4.8 0-.3 0-.7-.1-1z"/>
    <path fill="#34A853" d="M9.6 11.8c1.4 0 2.6-.5 3.5-1.3l-2.1-1.6c-.5.4-1.2.6-1.9.6-1.5 0-2.7-.9-3.2-2.2H4.2v1.7c.9 1.8 2.9 2.8 5.4 2.8z"/>
    <path fill="#FBBC04" d="M6.4 7.3c-.1-.4-.2-.8-.2-1.2s.1-.8.2-1.2V3.2H4.2C3.8 4 3.6 4.9 3.6 6.1c0 1.1.2 2.1.6 2.9l2.2-1.7z"/>
    <path fill="#EA4335" d="M9.6 2.6c.8 0 1.5.3 2.1.8l1.6-1.6C12.2.7 11 .2 9.6.2 7.1.2 5.1 1.2 4.2 3l2.2 1.7c.5-1.3 1.7-2.1 3.2-2.1z"/>
  </g>
  <text x="33" y="19.5" text-anchor="middle" fill="#3C4043" font-family="Arial, Helvetica, sans-serif" font-size="8" font-weight="500">Pay</text>
</svg>
