<svg xmlns="http://www.w3.org/2000/svg" viewBox="0 0 48 32" width="48" height="32" role="img" aria-label="PayPal">
  <rect width="48" height="32" rx="3" fill="#fff"/>
  <path fill="#003087" d="M18.2 8.5h6.1c2.1 0 3.6.5 4.4 1.5.6.7.8 1.6.7 2.8-.2 3.1-2.1 4.7-5.1 4.7h-2.2c-.4 0-.6.2-.7.7l-.8 5.1h-2.9l2.5-14.8z"/>
  <path fill="#009CDE" d="M20.4 11.2h3.8c.9 0 1.5.2 1.9.6.3.3.4.7.4 1.3-.1 1.6-1.1 2.4-2.7 2.4h-1.5c-.3 0-.5.2-.5.5l-.5 3.2h-1.7l.8-8z"/>
  <path fill="#003087" d="M28.5 9.2c1.4 0 2.5.3 3.2 1 .6.6.8 1.4.7 2.5-.2 2.8-1.9 4.3-4.6 4.3h-2.1c-.3 0-.5.2-.6.6l-.6 3.7h-2.4l1.9-12.1h4.5z"/>
  <path fill="#009CDE" d="M29.8 11.6h2.1c.8 0 1.3.2 1.6.5.3.3.4.7.3 1.2-.1 1.4-.9 2.1-2.3 2.1h-1.3c-.3 0-.4.2-.5.5l-.4 2.4h-1.5l1-6.7z"/>
</svg>
