<?xml version="1.0" encoding="UTF-8" standalone="no"?>
<svg
   xmlns:dc="http://purl.org/dc/elements/1.1/"
   xmlns:cc="http://creativecommons.org/ns#"
   xmlns:rdf="http://www.w3.org/1999/02/22-rdf-syntax-ns#"
   xmlns:svg="http://www.w3.org/2000/svg"
   xmlns="http://www.w3.org/2000/svg"
   xmlns:sodipodi="http://sodipodi.sourceforge.net/DTD/sodipodi-0.dtd"
   xmlns:inkscape="http://www.inkscape.org/namespaces/inkscape"
   version="1.1"
   id="svg2"
   xml:space="preserve"
   width="5669.2935"
   height="5669.2935"
   viewBox="0 2000 5669.2935 2050"
   sodipodi:docname="WORDMARK_one line_BLACK.ai"><metadata
     id="metadata8"><rdf:RDF><cc:Work
         rdf:about=""><dc:format>image/svg+xml</dc:format><dc:type
           rdf:resource="http://purl.org/dc/dcmitype/StillImage" /></cc:Work></rdf:RDF></metadata><defs
     id="defs6"><clipPath
       clipPathUnits="userSpaceOnUse"
       id="clipPath18"><path
         d="M 0,4251.968 H 4251.968 V 0 H 0 Z"
         id="path16" /></clipPath></defs><sodipodi:namedview
     pagecolor="#ffffff"
     bordercolor="#666666"
     borderopacity="1"
     objecttolerance="10"
     gridtolerance="10"
     guidetolerance="10"
     inkscape:pageopacity="0"
     inkscape:pageshadow="2"
     inkscape:window-width="640"
     inkscape:window-height="480"
     id="namedview4" /><g
     id="g10"
     inkscape:groupmode="layer"
     inkscape:label="WORDMARK_one line_BLACK"
     transform="matrix(1.3333333,0,0,-1.3333333,0,5669.2933)"><g
       id="g12"><g
         id="g14"
         clip-path="url(#clipPath18)"><g
           id="g20"
           transform="translate(500.1228,2321.6702)"><path
             d="m 0,0 v 99.857 c 0,7.232 0,14.994 2.533,20.836 v 1.481 h -77.849 v -1.481 C -52.443,111.958 -51.91,88.187 -51.91,65.815 V -2.406 c -17.621,-7.118 -41.533,-10.91 -64.961,-10.91 -87.386,0 -141.689,47.762 -141.689,137.404 0,74.687 48.015,129.443 136.101,129.443 55.796,0 84.07,-15.286 96.327,-26.052 h 1.494 v 49.079 c -26.48,5.321 -58.623,10.184 -85.603,10.184 -130.252,0 -206.36,-67.397 -206.36,-169.455 0,-97.596 72.995,-165.551 203.296,-165.551 41.267,0 94.116,11.293 124.372,19.563 v 1.964 C 1.996,-20.278 0,-10.828 0,0"
             style="fill:#231f20;fill-opacity:1;fill-rule:nonzero;stroke:none"
             id="path22" /></g><g
           id="g24"
           transform="translate(1969.7435,2321.6702)"><path
             d="m 0,0 v 99.857 c 0,7.232 0,14.994 2.531,20.836 v 1.481 h -77.849 v -1.481 c 22.873,-8.735 23.406,-32.506 23.406,-54.878 V -2.406 c -17.619,-7.118 -41.531,-10.91 -64.961,-10.91 -87.386,0 -141.689,47.762 -141.689,137.404 0,74.687 48.017,129.443 136.101,129.443 55.798,0 84.07,-15.286 96.329,-26.052 h 1.494 v 49.079 c -26.48,5.321 -58.623,10.184 -85.605,10.184 -130.252,0 -206.358,-67.397 -206.358,-169.455 0,-97.596 72.993,-165.551 203.294,-165.551 41.269,0 94.116,11.293 124.374,19.563 v 1.964 C 1.994,-20.278 0,-10.828 0,0"
             style="fill:#231f20;fill-opacity:1;fill-rule:nonzero;stroke:none"
             id="path26" /></g><g
           id="g28"
           transform="translate(1069.6907,2308.4438)"><path
             d="m 0,0 c -79.658,0 -130.369,51.12 -130.369,137.828 0,91.149 58.362,127.564 129.334,127.564 73.266,0 127.782,-46.268 127.782,-139.254 C 126.747,41.872 78.539,0 0,0 m 2.529,300.441 c -106.364,2.406 -190.926,-68.27 -190.926,-167.035 0,-100.318 77.787,-168.444 185.86,-168.444 107.693,0 187.339,69.724 187.339,170.891 0,87.412 -75.361,165.104 -182.273,164.588"
             style="fill:#231f20;fill-opacity:1;fill-rule:nonzero;stroke:none"
             id="path30" /></g><g
           id="g32"
           transform="translate(1641.3186,2283.6836)"><path
             d="m 0,0 c -29.421,13.703 -61.782,40.992 -82.49,65.449 l -66.57,83.368 c 44.039,11.765 71.76,43.36 71.76,86.076 0,44.149 -39.794,82.085 -107.969,82.085 h -126.926 v -1.48 c 11.347,-6.562 14.68,-19.302 14.68,-41.578 V 37.592 c 0,-21.796 -2.132,-30.848 -13.74,-38.664 v -1.439 h 79.378 v 1.439 c -10.439,6.61 -13.707,18.354 -13.707,40.706 v 248.705 c 0,0 18.27,0.212 37.998,0.117 47.803,-0.261 78.37,-22.031 78.37,-59.392 0,-39.78 -21.811,-70.003 -81.811,-78.588 L -110.966,21.802 C -95.66,3.797 -78.878,-2.511 -51.876,-2.511 H 0 Z"
             style="fill:#231f20;fill-opacity:1;fill-rule:nonzero;stroke:none"
             id="path34" /></g><g
           id="g36"
           transform="translate(2216.635,2599.1836)"><path
             d="m 0,0 c 9.627,-6.445 13.411,-13.59 13.411,-35.927 v -275.904 c 0,-47.591 -15.063,-79.707 -43.393,-97.046 v -1.425 c 74.851,7.767 95.332,73.191 95.332,124.663 V -37.54 c 0,22.333 2.021,32.097 10.62,37.54 V 1.48 L 0,1.48 Z"
             style="fill:#231f20;fill-opacity:1;fill-rule:nonzero;stroke:none"
             id="path38" /></g><g
           id="g40"
           transform="translate(2947.4778,2599.199)"><path
             d="m 0,0 c 8.431,-5.054 15.679,-7.974 15.679,-35.141 v -207.27 l -173.97,221.532 c 0,0 -12.715,15.996 -14.736,21.865 v 0.473 h -83.502 V 0 c 10.042,-4.457 18.847,-11.697 18.847,-33.933 v -228.313 c 0,-40.673 -1.426,-46.336 -13.258,-54.332 v -1.453 h 69.138 v 1.453 c -11.847,7.811 -15.024,12.844 -15.024,54.332 v 210.364 l 189.55,-240.005 c 20.499,-26.405 32.836,-35.9 64.607,-41.701 v 294.224 c 0,27.192 1.063,31.697 11.26,39.364 V 1.459 L 0,1.459 Z"
             style="fill:#231f20;fill-opacity:1;fill-rule:nonzero;stroke:none"
             id="path42" /></g><g
           id="g44"
           transform="translate(3959.2673,2600.658)"><path
             d="M 0,0 V -1.459 C 8.441,-6.513 15.693,-9.433 15.693,-36.6 v -207.27 l -173.914,221.532 c 0,0 -12.765,15.996 -14.788,21.865 V 0 h -83.504 v -1.459 c 10.036,-4.457 18.846,-11.697 18.846,-33.933 v -228.313 c 0,-40.673 -1.414,-46.336 -13.232,-54.332 v -1.453 h 69.093 v 1.453 c -11.843,7.811 -15.024,12.844 -15.024,54.332 V -53.341 L -7.289,-293.346 c 20.529,-26.404 32.837,-35.9 64.636,-41.701 v 294.224 c 0,27.192 1.037,31.698 11.244,39.364 l 0,1.459 z"
             style="fill:#231f20;fill-opacity:1;fill-rule:nonzero;stroke:none"
             id="path46" /></g><g
           id="g48"
           transform="translate(3159.7888,2527.6472)"><path
             d="m 0,0 c -2.103,31.452 25.978,49.398 61.658,49.398 33.259,0 54.72,-13.481 68.853,-27.804 l 1.703,-0.057 0.155,42.965 C 112.622,73.237 93.501,79.372 66.572,80.763 0.846,84.156 -49.289,54.194 -49.289,-4.202 c 0,-102.909 163.444,-95.853 163.444,-166.901 0,-31.396 -35.378,-48.789 -73.02,-47.672 -31.908,0.947 -67.413,13.263 -97.087,49.61 l -1.881,-0.117 8.017,-60.144 c 20.609,-14.779 61.86,-27.178 97.755,-27.178 64.274,0 118.643,29.923 118.629,94.644 C 166.549,-69.447 4.107,-61.399 0,0"
             style="fill:#231f20;fill-opacity:1;fill-rule:nonzero;stroke:none"
             id="path50" /></g><g
           id="g52"
           transform="translate(2526.114,2317.9937)"><path
             d="m 0,0 -64.669,0.146 v 117.495 h 55.524 c 27.972,0 38.38,-5.793 40.884,-10.194 h 1.562 v 47.083 l -97.97,0.033 v 92.591 c 0,0 47.562,-0.269 65.375,-0.269 36.271,0 53.096,-5.122 60.076,-12.856 h 1.543 l -6.033,48.641 h -187.297 v -1.467 c 12.203,-7.254 14.411,-16.407 14.411,-38.753 V 4.914 c 0,-21.872 -0.809,-31.293 -12.431,-40.294 v -1.44 H 72.766 L 91.073,19.341 H 89.566 C 74.721,6.869 54.873,0 0,0"
             style="fill:#231f20;fill-opacity:1;fill-rule:nonzero;stroke:none"
             id="path54" /></g><g
           id="g56"
           transform="translate(736.169,2317.9937)"><path
             d="m 0,0 -64.671,0.146 v 117.495 h 55.524 c 27.974,0 38.382,-5.793 40.885,-10.194 h 1.564 v 47.083 l -97.973,0.033 v 92.591 c 0,0 47.564,-0.269 65.377,-0.269 36.269,0 53.096,-5.122 60.074,-12.856 h 1.543 l -6.031,48.641 h -187.299 v -1.467 c 12.205,-7.254 14.413,-16.407 14.413,-38.753 V 4.914 c 0,-21.872 -0.81,-31.293 -12.431,-40.294 v -1.44 H 72.766 L 91.073,19.341 H 89.566 C 74.721,6.869 54.87,0 0,0"
             style="fill:#231f20;fill-opacity:1;fill-rule:nonzero;stroke:none"
             id="path58" /></g><g
           id="g60"
           transform="translate(3540.4075,2317.9937)"><path
             d="m 0,0 -64.671,0.146 v 117.495 h 55.526 c 27.974,0 38.38,-5.793 40.883,-10.194 h 1.564 v 47.083 l -97.973,0.033 v 92.591 c 0,0 47.566,-0.269 65.377,-0.269 36.273,0 53.098,-5.122 60.076,-12.856 h 1.545 l -6.031,48.641 h -187.301 v -1.467 c 12.203,-7.254 14.411,-16.407 14.411,-38.753 V 4.914 c 0,-21.872 -0.808,-31.293 -12.429,-40.294 v -1.44 H 72.77 L 91.075,19.341 H 89.567 C 74.723,6.869 54.874,0 0,0"
             style="fill:#231f20;fill-opacity:1;fill-rule:nonzero;stroke:none"
             id="path62" /></g></g></g></g></svg>
